<svg width="17" height="17" viewBox="0 0 17 17" xmlns="http://www.w3.org/2000/svg">
<path d="M14.4238 0.669304C13.5159 -0.21448 12.1484 -0.231681 11.2495 0.669304C7.95606 3.94561 4.67247 7.23365 1.39871 10.5334C1.098 10.8373 0.907074 11.2804 0.750569 11.6908C0.576038 12.1437 0.494104 12.6336 0.37775 13.1094C0.232717 13.7025 0.0942305 14.2971 0 14.6903C0 16.2383 1.19633 17.2294 2.49671 16.9542C3.24481 16.7953 3.97817 16.561 4.72956 16.4218C5.63581 16.258 6.33148 15.796 6.97224 15.1457C9.43043 12.6434 11.9296 10.1739 14.4124 7.69207C15.049 7.05483 15.698 6.42987 16.3183 5.77707C17.2499 4.79417 17.2196 3.473 16.2707 2.51714C15.6562 1.89709 15.0466 1.27624 14.4238 0.669304ZM12.8072 7.18997C10.4107 9.58659 8.01451 11.9838 5.6186 14.3815C5.37681 14.6317 5.06681 14.8055 4.7271 14.8811C3.95195 15.0605 3.18254 15.262 2.40985 15.4545C1.71909 15.6265 1.37168 15.2808 1.54375 14.592C1.75433 13.7508 1.95344 12.9079 2.18533 12.0717C2.23666 11.8749 2.33605 11.6939 2.47458 11.545C4.95899 9.04792 7.44886 6.55601 9.94419 4.06929C9.97621 4.04011 10.0099 4.01276 10.045 3.98739L13.0186 6.95982C12.9538 7.0319 12.8834 7.11298 12.8072 7.18997ZM15.3055 4.6623C14.9294 5.07184 14.5033 5.44452 14.1034 5.82867L11.1274 2.85951C11.5682 2.44998 12.005 1.99702 12.4942 1.60796C12.7785 1.3819 13.1284 1.47527 13.4061 1.75048C14.0234 2.36206 14.6377 2.97637 15.249 3.5934C15.5644 3.91121 15.6103 4.3273 15.3055 4.6623Z"/>
</svg>
