<svg width="17" height="17" viewBox="0 0 17 17" fill="none" xmlns="http://www.w3.org/2000/svg">
<path d="M6.93537 3.09424C6.42629 3.09424 5.918 3.09424 5.41212 3.09424C4.90625 3.09424 4.39395 3.09424 3.88888 3.09424C3.3838 3.09424 3.09358 3.38936 3.09277 3.88737C3.09277 4.90317 3.09277 5.92111 3.09277 6.94119C3.09277 7.42717 3.39101 7.73432 3.87364 7.73593C4.89769 7.73967 5.92094 7.73967 6.94339 7.73593C7.42441 7.73593 7.73307 7.42958 7.73467 6.9476C7.73788 5.92432 7.73788 4.90103 7.73467 3.87775C7.72666 3.39337 7.42121 3.09584 6.93537 3.09424ZM6.16172 6.16972H4.64729V4.66124H6.16333L6.16172 6.16972Z"/>
<path d="M11.3404 1.52163C11.4534 1.54774 11.5692 1.55986 11.6852 1.55771C12.6969 1.55771 13.7087 1.55771 14.7204 1.56332C14.8825 1.5561 15.0417 1.60736 15.1692 1.70775C15.2966 1.80814 15.3838 1.95098 15.4147 2.11025C15.4354 2.22991 15.4432 2.35143 15.438 2.47274C15.438 3.44631 15.438 4.41907 15.438 5.39263C15.438 5.88664 15.7434 6.18657 16.2204 6.18496C16.6975 6.18336 16.9885 5.88423 16.9893 5.38301C16.9893 4.85747 16.9893 4.3322 16.9893 3.80719C16.9893 3.71336 16.9893 3.61953 16.9893 3.5249C16.9781 2.97877 17.0093 2.42702 16.9452 1.88651C16.8249 0.870436 15.8701 0.0259801 14.8487 0.00994107C13.7375 -0.00770185 12.6256 0.00192156 11.5144 0.00994107C11.341 0.0104094 11.1738 0.0750667 11.0452 0.191447C10.9166 0.307827 10.8355 0.467697 10.8177 0.640273C10.7728 1.08616 10.9741 1.427 11.3404 1.52163Z"/>
<path d="M6.94233 9.26998C5.91935 9.26678 4.89611 9.26678 3.87259 9.26998C3.38676 9.26998 3.08772 9.57633 3.08691 10.0607C3.08691 11.0765 3.08691 12.0942 3.08691 13.1137C3.08691 13.6133 3.38194 13.9109 3.8782 13.9157C4.38729 13.9157 4.89557 13.9157 5.40145 13.9157C5.90733 13.9157 6.41882 13.9157 6.9247 13.9157C7.41935 13.9157 7.7216 13.6158 7.72641 13.1201C7.72961 12.1043 7.72961 11.0864 7.72641 10.0663C7.72721 9.57793 7.42416 9.27239 6.94233 9.26998ZM6.16307 12.3511H4.65346V10.8362H6.16388L6.16307 12.3511Z"/>
<path d="M13.1908 10.8224C13.3722 10.8189 13.5458 10.7477 13.6775 10.6227C13.8092 10.4978 13.8895 10.3282 13.9027 10.1471C13.9404 9.70366 13.7263 9.35321 13.3191 9.30348C12.9418 9.25858 12.5607 9.25697 12.183 9.29868C11.7822 9.34359 11.5761 9.65474 11.5834 10.0814C11.5778 10.2602 11.6396 10.4347 11.7567 10.57C11.8737 10.7053 12.0374 10.7917 12.2151 10.812C12.3857 10.824 12.5568 10.824 12.7274 10.812V10.82C12.8821 10.824 13.0369 10.8296 13.1908 10.8224Z"/>
<path d="M5.36103 15.4473C4.33244 15.4473 3.30385 15.4473 2.27525 15.4473C2.10982 15.4547 1.94731 15.4019 1.81776 15.2987C1.68822 15.1955 1.6004 15.0489 1.57055 14.8859C1.55352 14.788 1.54733 14.6885 1.55211 14.5892C1.55211 13.6052 1.55211 12.6204 1.55211 11.6365C1.55211 10.9275 0.985301 10.7142 0.481026 10.8642C0.218867 10.9444 0.0897915 11.1505 0 11.3911V15.0086C0.0376804 15.1514 0.0649428 15.2974 0.114649 15.4353C0.416893 16.2862 1.01416 16.7986 1.90085 16.9678C1.93192 16.9759 1.96223 16.9866 1.99144 16.9999H5.60876C5.92944 16.8804 6.15553 16.6791 6.17477 16.3078C6.20123 15.7697 5.90299 15.4489 5.36103 15.4473Z"/>
<path d="M16.3789 10.8296C15.9404 10.7686 15.5884 10.9595 15.4834 11.3284C15.4529 11.4459 15.4384 11.567 15.4401 11.6884C15.4401 12.6949 15.4401 13.7013 15.4401 14.707C15.4401 15.0847 15.2285 15.3485 14.8789 15.4287C14.7809 15.4452 14.6816 15.4517 14.5823 15.448C13.5922 15.448 12.6029 15.448 11.616 15.448C10.9129 15.452 10.7068 16.0326 10.8664 16.5338C10.9465 16.7872 11.1542 16.9115 11.3875 16.9998H15.0056C15.0404 16.9862 15.076 16.975 15.1122 16.9661C16.1488 16.7961 16.977 15.8778 16.9914 14.8449C17.0067 13.7398 16.9986 12.6339 16.9914 11.5281C16.9913 11.3571 16.9292 11.1921 16.8165 11.0636C16.7038 10.9351 16.5483 10.8519 16.3789 10.8296Z"/>
<path d="M11.9663 13.9127C12.3528 13.9127 12.74 13.9127 13.1264 13.9127C13.5834 13.9127 13.8929 13.6184 13.9041 13.1846C13.9169 12.7034 13.6379 12.3714 13.1697 12.3634C12.368 12.3489 11.5663 12.3489 10.7646 12.3634C10.3108 12.3714 10.0166 12.7122 10.0318 13.1565C10.047 13.6008 10.3525 13.9079 10.8039 13.9111C11.1927 13.9151 11.5791 13.9127 11.9663 13.9127Z"/>
<path d="M10.1225 11.5899C10.2983 11.5846 10.466 11.5143 10.593 11.3926C10.7201 11.2708 10.7975 11.1063 10.8103 10.9307C10.8187 10.7654 10.8187 10.5997 10.8103 10.4343C10.8103 10.2852 10.8159 10.136 10.8103 9.98683C10.8063 9.7994 10.7306 9.62064 10.5987 9.48741C10.4669 9.35417 10.2889 9.27661 10.1016 9.2707C9.68712 9.24103 9.33758 9.46396 9.29108 9.85772C9.24579 10.2351 9.24417 10.6164 9.28627 10.9941C9.33998 11.4111 9.65826 11.6116 10.1225 11.5899Z"/>
<path d="M0.823532 6.18322C1.16025 6.17039 1.4184 5.98674 1.50498 5.6796C1.53682 5.55682 1.55191 5.4303 1.54988 5.30348C1.54988 4.29783 1.54988 3.29138 1.55549 2.28493C1.55549 1.85589 1.84571 1.5728 2.27703 1.56318C2.49269 1.55756 2.70835 1.56318 2.92401 1.56318C3.74736 1.56318 4.57072 1.56799 5.39488 1.56318C5.88553 1.56318 6.18296 1.25122 6.17895 0.773257C6.17494 0.295295 5.8767 0.013009 5.38927 0.012207C4.34704 0.012207 3.29921 0.012207 2.25458 0.012207C1.78717 0.0125983 1.33153 0.158927 0.951245 0.430784C0.570962 0.70264 0.285004 1.08647 0.133261 1.5287C0.0803478 1.68347 0.0450706 1.84467 0.000976562 2.00265V5.62025C0.016209 5.65474 0.0330406 5.68761 0.0466697 5.72289C0.170935 6.03806 0.438711 6.19846 0.823532 6.18322Z"/>
<path d="M10.043 7.7359C11.0724 7.73964 12.1013 7.73964 13.1296 7.7359C13.6034 7.7359 13.9025 7.42554 13.9041 6.95079C13.9041 6.44155 13.9041 5.93311 13.9041 5.42708C13.9041 4.92105 13.9041 4.39818 13.9041 3.88413C13.9041 3.39735 13.605 3.09821 13.1184 3.09741C12.0949 3.09741 11.0716 3.09741 10.0486 3.09741C9.56762 3.09741 9.26458 3.39734 9.26297 3.87049C9.2587 4.89913 9.2587 5.92803 9.26297 6.9572C9.26458 7.42714 9.57003 7.7343 10.043 7.7359ZM10.8287 4.66122H12.3431V6.16969H10.8287V4.66122Z"/>
</svg>
