<svg width="13" height="13" viewBox="0 0 13 13" xmlns="http://www.w3.org/2000/svg">
<path d="M12.2472 2.81723C12.9607 2.10403 13.3325 1.35358 12.6063 0.470001C12.0205 -0.243201 11.07 -0.130673 10.1846 0.777471C9.00181 1.9915 7.86583 3.25149 6.83846 4.35378C6.4532 4.26345 6.40009 4.26742 6.37551 4.24285C5.18642 3.0835 3.98624 1.93445 2.81697 0.756083C2.10352 0.0428806 1.35677 -0.334331 0.472094 0.392343C-0.241358 0.978753 -0.128794 1.9289 0.777291 2.81407C1.99095 3.99798 3.2498 5.13593 4.40639 6.21603C4.24784 6.57739 4.23595 6.6709 4.18204 6.72558C3.04607 7.88018 1.91802 9.04191 0.762229 10.1751C0.0432275 10.8804 -0.332522 11.6316 0.387271 12.5192C0.968338 13.2324 1.92753 13.127 2.80984 12.2244C3.99892 11.0111 5.13331 9.75114 6.50076 8.28908C7.86663 9.75114 9.02717 10.9882 10.1822 12.2299C10.8679 12.9677 11.6344 13.329 12.5231 12.6087C13.2365 12.0286 13.1311 11.0619 12.2322 10.183C11.0201 8.99436 9.76044 7.85957 8.6649 6.83256C8.74417 6.45377 8.73783 6.39988 8.76161 6.37532C9.9182 5.18585 11.0732 3.98846 12.2472 2.81723Z"/>
</svg>
